# xmcd
#
# Track frame offsets: 
#        150
#        12332
#        25752
#        35990
#        48392
#        65322
#        84227
#        102655
#        122007
#
# Disc length: 1814 seconds
#
# Revision: 1
# Processed by: cddbd v1.5.2PL0 Copyright (c) Steve Scherf et al.
# Submitted via: ExactAudioCopyFreeDBPlugin 1.0
#
DISCID=71071409
DTITLE=Störkraft - Live 1991
DYEAR=1991
DGENRE=RAC
TTITLE0=Störkraft
TTITLE1=Kraft für Doitschland
TTITLE2=Skinhead
TTITLE3=Terror
TTITLE4=Unter Froinden
TTITLE5=Hooligans
TTITLE6=Steh auf ...
TTITLE7=Phönix aus der Asche
TTITLE8=Dreckig Kahl Hundsgemein
EXTD=
EXTT0=
EXTT1=
EXTT2=
EXTT3=
EXTT4=
EXTT5=
EXTT6=
EXTT7=
EXTT8=
PLAYORDER=
